<svg id="Layer_1" data-name="Layer 1" xmlns="http://www.w3.org/2000/svg" xmlns:xlink="http://www.w3.org/1999/xlink" viewBox="0 0 1080 1923.84"><defs><style>.cls-1{fill:url(#linear-gradient);}.cls-2{fill:url(#linear-gradient-2);}.cls-3{fill:url(#linear-gradient-3);}.cls-4{fill:url(#linear-gradient-4);}.cls-5{fill:url(#linear-gradient-5);}.cls-6{fill:url(#linear-gradient-6);}.cls-7{fill:url(#linear-gradient-7);}.cls-8{fill:url(#linear-gradient-8);}.cls-9{fill:url(#linear-gradient-9);}.cls-10{fill:url(#linear-gradient-10);}.cls-11{fill:url(#linear-gradient-11);}.cls-12{fill:url(#linear-gradient-12);}.cls-13{fill:url(#linear-gradient-13);}.cls-14{fill:url(#linear-gradient-14);}.cls-15{fill:url(#linear-gradient-15);}.cls-16{fill:url(#linear-gradient-16);}.cls-17{fill:url(#linear-gradient-17);}.cls-18{fill:url(#linear-gradient-18);}.cls-19{fill:url(#linear-gradient-19);}.cls-20{fill:url(#linear-gradient-20);}.cls-21{fill:url(#linear-gradient-21);}.cls-22{fill:url(#linear-gradient-22);}.cls-23{fill:url(#linear-gradient-23);}.cls-24{fill:url(#linear-gradient-24);}.cls-25{fill:url(#linear-gradient-25);}.cls-26{fill:url(#linear-gradient-26);}.cls-27{fill:url(#linear-gradient-27);}.cls-28{fill:url(#linear-gradient-28);}</style><linearGradient id="linear-gradient" x1="115.18" y1="1345.06" x2="215.81" y2="1345.06" gradientUnits="userSpaceOnUse"><stop offset="0"/><stop offset="0.4" stop-color="#010002"/><stop offset="0.55" stop-color="#070209"/><stop offset="0.65" stop-color="#100414"/><stop offset="0.73" stop-color="#1c0825"/><stop offset="0.8" stop-color="#2d0d3b"/><stop offset="0.87" stop-color="#421257"/><stop offset="0.93" stop-color="#5a1977"/><stop offset="0.98" stop-color="#76219b"/><stop offset="1" stop-color="#8525af"/></linearGradient><linearGradient id="linear-gradient-2" x1="225.87" y1="1358" x2="299.66" y2="1358" xlink:href="#linear-gradient"/><linearGradient id="linear-gradient-3" x1="309.73" y1="1375.79" x2="401.8" y2="1375.79" xlink:href="#linear-gradient"/><linearGradient id="linear-gradient-4" x1="406.83" y1="1358" x2="480.63" y2="1358" xlink:href="#linear-gradient"/><linearGradient id="linear-gradient-5" x1="485.16" y1="1345.06" x2="558.95" y2="1345.06" xlink:href="#linear-gradient"/><linearGradient id="linear-gradient-6" x1="569.02" y1="1357.19" x2="644.49" y2="1357.19" xlink:href="#linear-gradient"/><linearGradient id="linear-gradient-7" x1="654.55" y1="1345.06" x2="728.34" y2="1345.06" xlink:href="#linear-gradient"/><linearGradient id="linear-gradient-8" x1="738.41" y1="1357.19" x2="813.88" y2="1357.19" xlink:href="#linear-gradient"/><linearGradient id="linear-gradient-9" x1="823.94" y1="1345.06" x2="842.39" y2="1345.06" xlink:href="#linear-gradient"/><linearGradient id="linear-gradient-10" x1="852.45" y1="1345.06" x2="870.9" y2="1345.06" xlink:href="#linear-gradient"/><linearGradient id="linear-gradient-11" x1="880.96" y1="1358" x2="954.76" y2="1358" xlink:href="#linear-gradient"/><linearGradient id="linear-gradient-12" x1="115.18" y1="1539.14" x2="215.81" y2="1539.14" xlink:href="#linear-gradient"/><linearGradient id="linear-gradient-13" x1="225.87" y1="1539.14" x2="299.66" y2="1539.14" xlink:href="#linear-gradient"/><linearGradient id="linear-gradient-14" x1="309.73" y1="1552.08" x2="383.52" y2="1552.08" xlink:href="#linear-gradient"/><linearGradient id="linear-gradient-15" x1="393.58" y1="1539.14" x2="432.16" y2="1539.14" xlink:href="#linear-gradient"/><linearGradient id="linear-gradient-16" x1="442.22" y1="1552.08" x2="516.02" y2="1552.08" xlink:href="#linear-gradient"/><linearGradient id="linear-gradient-17" x1="517.19" y1="1552.08" x2="590.99" y2="1552.08" xlink:href="#linear-gradient"/><linearGradient id="linear-gradient-18" x1="601.05" y1="1552.08" x2="674.84" y2="1552.08" xlink:href="#linear-gradient"/><linearGradient id="linear-gradient-19" x1="684.91" y1="1539.14" x2="723.48" y2="1539.14" xlink:href="#linear-gradient"/><linearGradient id="linear-gradient-20" x1="115.18" y1="1733.22" x2="256.06" y2="1733.22" xlink:href="#linear-gradient"/><linearGradient id="linear-gradient-21" x1="251.53" y1="1746.16" x2="325.33" y2="1746.16" xlink:href="#linear-gradient"/><linearGradient id="linear-gradient-22" x1="335.39" y1="1733.22" x2="353.84" y2="1733.22" xlink:href="#linear-gradient"/><linearGradient id="linear-gradient-23" x1="363.9" y1="1733.22" x2="382.35" y2="1733.22" xlink:href="#linear-gradient"/><linearGradient id="linear-gradient-24" x1="392.41" y1="1763.95" x2="466.21" y2="1763.95" xlink:href="#linear-gradient"/><linearGradient id="linear-gradient-25" x1="476.27" y1="1746.16" x2="550.07" y2="1746.16" xlink:href="#linear-gradient"/><linearGradient id="linear-gradient-26" x1="554.59" y1="1763.95" x2="628.39" y2="1763.95" xlink:href="#linear-gradient"/><linearGradient id="linear-gradient-27" x1="638.45" y1="1745.35" x2="713.92" y2="1745.35" xlink:href="#linear-gradient"/><linearGradient id="linear-gradient-28" x1="723.99" y1="1746.16" x2="797.78" y2="1746.16" xlink:href="#linear-gradient"/></defs><g id="_Rectangle_Image" data-name="&lt;Rectangle&gt; Image"><path class="cls-1" d="M215.81,1325.65v9.71q0,29.1-30.19,29.11H135.31v29.11H115.18v-97h70.44Q215.82,1296.54,215.81,1325.65Zm-20.13,0q0-9.7-10.06-9.7H135.31v29.11h50.31q10.06,0,10.06-9.7Z"/><path class="cls-2" d="M299.66,1371.42q0,22-23,22.16H230.9v-17.79h45.79q4.53,0,4.53-4.37,0-4.53-4.53-4.53H248.85q-23-.15-23-22.64,0-21.84,23-21.83h45.78v17.79H248.85q-4.36,0-4.53,4.36.17,4.53,4.53,4.53h27.84Q299.65,1349.1,299.66,1371.42Z"/><path class="cls-3" d="M319.79,1411.37h8.39q4.51,0,11.57-10l5.36-10.67-35.38-68.25h20.63l25.49,49.33,25.32-49.33H401.8l-36.9,71.16-7.54,14.72q-10.74,20.87-29,20.86h-8.55Z"/><path class="cls-4" d="M480.63,1393.58H434.51q-27.67,0-27.68-26.69V1349.1q0-26.68,27.68-26.68h46.12v17.79H434.51q-9.22,0-9.23,8.89v17.79q0,8.89,9.23,8.9h46.12Z"/><path class="cls-5" d="M485.16,1393.58v-97h18.45v25.88h27.67q27.68,0,27.67,26.68v44.48H540.5V1349.1q0-8.89-9.22-8.89H503.61v53.37Z"/><path class="cls-6" d="M587.46,1365.28v1.61q0,8.89,9.23,8.9h44.44v17.79H596.69q-27.68,0-27.67-26.69v-19.4q0-26.7,28.17-26.69h19.12q28.19,0,28.18,26.69v17.79ZM626,1347.49q0-8.9-9.23-8.9H596.69q-9.23,0-9.23,8.9Z"/><path class="cls-7" d="M654.55,1349.1q0-26.68,27.67-26.68H709.9v-25.88h18.44v97H682.22q-27.68,0-27.67-26.69Zm55.35-8.89H682.22q-9.22,0-9.22,8.89v17.79q0,8.89,9.22,8.9H709.9Z"/><path class="cls-8" d="M756.86,1365.28v1.61q0,8.89,9.22,8.9h44.44v17.79H766.08q-27.68,0-27.67-26.69v-19.4q0-26.7,28.17-26.69H785.7q28.18,0,28.18,26.69v17.79Zm38.57-17.79q0-8.9-9.22-8.9H766.08q-9.23,0-9.22,8.9Z"/><path class="cls-9" d="M823.94,1393.58v-97h18.45v97Z"/><path class="cls-10" d="M870.9,1314.33H852.45v-17.79H870.9Zm0,79.25H852.45v-71.16H870.9Z"/><path class="cls-11" d="M954.76,1393.58H908.64q-27.67,0-27.68-26.69V1349.1q0-26.68,27.68-26.68h46.12v17.79H908.64q-9.23,0-9.23,8.89v17.79q0,8.89,9.23,8.9h46.12Z"/><path class="cls-12" d="M215.81,1587.66H195.68v-19.41H135.31v19.41H115.18v-67.93q0-29.12,30.19-29.11h40.25q30.19,0,30.19,29.11Zm-20.13-38.82v-29.11q0-9.7-10.06-9.7H145.37q-10.06,0-10.06,9.7v29.11Z"/><path class="cls-13" d="M299.66,1561q0,26.68-27.67,26.69H225.87v-97h18.45v25.88H272q27.67,0,27.67,26.68Zm-55.34,8.9H272q9.22,0,9.23-8.9v-17.79q0-8.9-9.23-8.89H244.32Z"/><path class="cls-14" d="M383.52,1565.5q0,22-23,22.16H314.76v-17.79h45.78q4.53,0,4.53-4.37c0-3-1.51-4.53-4.53-4.53H332.7q-23-.15-23-22.64,0-21.82,23-21.83h45.79v17.79H332.7c-2.91,0-4.41,1.45-4.52,4.36.11,3,1.61,4.53,4.52,4.53h27.84Q383.52,1543.18,383.52,1565.5Z"/><path class="cls-15" d="M393.58,1516.5h10.07v-25.88H422.1v25.88h10.06v17.79H422.1v53.37H403.65v-53.37H393.58Z"/><path class="cls-16" d="M442.22,1587.66V1516.5h46.12q27.68,0,27.68,26.68H497.57q0-8.9-9.23-8.89H460.67v53.37Z"/><path class="cls-17" d="M540.33,1587.66q-23.15,0-23.14-22.64,0-21.84,23.14-21.84h32.21V1543q0-8.73-9.23-8.73H520.54V1516.5h42.77q27.68,0,27.68,26.68v44.48Zm0-17.79h32.21V1561H540.33q-4.7,0-4.69,4.37Q535.64,1569.87,540.33,1569.87Z"/><path class="cls-18" d="M674.84,1587.66H628.72q-27.68,0-27.67-26.69v-17.79q0-26.68,27.67-26.68h46.12v17.79H628.72q-9.22,0-9.22,8.89V1561q0,8.91,9.22,8.9h46.12Z"/><path class="cls-19" d="M684.91,1516.5H695v-25.88h18.45v25.88h10.06v17.79H713.42v53.37H695v-53.37H684.91Z"/><path class="cls-20" d="M256.06,1684.7l-29.69,97H205.24l-19.62-63.07L166,1781.74H144.86l-29.68-97h21.13l19.12,63.08,19.62-63.08h21.14l19.62,63.08,19.12-63.08Z"/><path class="cls-21" d="M274.68,1781.74q-23.15,0-23.15-22.64,0-21.84,23.15-21.84h32.2v-.16q0-8.73-9.23-8.73H254.89v-17.79h42.76q27.68,0,27.68,26.68v44.48Zm0-17.79h32.2v-8.9h-32.2q-4.69,0-4.7,4.37Q270,1764,274.68,1764Z"/><path class="cls-22" d="M335.39,1781.74v-97h18.45v97Z"/><path class="cls-23" d="M363.9,1781.74v-97h18.45v97Z"/><path class="cls-24" d="M466.21,1755.05q0,26.7-28,26.69H410.86v35.58H392.41V1710.58h46.12q27.68,0,27.68,26.68Zm-55.35,8.9h27.67q9.23,0,9.23-8.9v-17.79q0-8.88-9.23-8.89H410.86Z"/><path class="cls-25" d="M499.41,1781.74q-23.15,0-23.14-22.64,0-21.84,23.14-21.84h32.21v-.16q0-8.73-9.23-8.73H479.62v-17.79h42.77q27.68,0,27.68,26.68v44.48Zm0-17.79h32.21v-8.9H499.41q-4.7,0-4.69,4.37Q494.72,1764,499.41,1764Z"/><path class="cls-26" d="M628.39,1755.05q0,26.7-28,26.69H573v35.58H554.59V1710.58h46.13q27.67,0,27.67,26.68ZM573,1764h27.68q9.21,0,9.22-8.9v-17.79q0-8.88-9.22-8.89H573Z"/><path class="cls-27" d="M656.9,1753.44v1.61q0,8.91,9.23,8.9h44.44v17.79H666.13q-27.68,0-27.68-26.69v-19.4q0-26.69,28.18-26.69h19.12q28.17,0,28.17,26.69v17.79Zm38.58-17.79q0-8.89-9.23-8.9H666.13q-9.24,0-9.23,8.9Z"/><path class="cls-28" d="M724,1781.74v-71.16h46.12q27.67,0,27.67,26.68H779.33q0-8.88-9.22-8.89H742.43v53.37Z"/></g></svg>