<?xml version="1.0" encoding="utf-8"?>
<!-- Generator: Adobe Illustrator 24.2.3, SVG Export Plug-In . SVG Version: 6.00 Build 0)  -->
<svg version="1.1" id="Layer_1" xmlns="http://www.w3.org/2000/svg" xmlns:xlink="http://www.w3.org/1999/xlink" x="0px" y="0px"
	 viewBox="0 0 200 200" style="enable-background:new 0 0 200 200;" xml:space="preserve">
<style type="text/css">
	.st0{fill:#1E9CBD;}
	.st1{fill:#2BCDDD;}
	.st2{fill:#199DBE;}
	.st3{fill:#197D96;}
	.st4{fill:#020202;}
	.st5{fill:#1B242D;}
	.st6{fill:#BB3C61;}
	.st7{fill:#F8487E;}
	.st8{fill:#B83C60;}
</style>
<g>
	<path class="st0" d="M176.8,190.1H85.1c-5,0-9.1-4.1-9.1-9.1v-70.6c0-5,4.1-9.1,9.1-9.1h91.7c5,0,9.1,4.1,9.1,9.1v70.6
		C185.9,186.1,181.8,190.1,176.8,190.1z"/>
	<circle class="st0" cx="100" cy="100" r="100"/>
	<path class="st1" d="M100.3,100l0.1,100c0,0,0,0-0.1,0c-54.9,0-100-45.1-100-100S45.4,0,100.3,0V100z"/>
	<path class="st2" d="M86.1,83.3c0,3.8-0.8,7.4-2.2,10.6c-1.9,4.3-4.8,8-8.5,10.8c-4.5,3.3-10,5.3-16,5.3c-14.8,0-26.8-12-26.8-26.8
		c0-3.8,0.8-7.4,2.2-10.6c1.9-4.3,4.8-8.1,8.5-10.8c4.5-3.3,10-5.3,16-5.3C74.1,56.6,86.1,68.5,86.1,83.3z"/>
	<circle class="st3" cx="142.3" cy="83.1" r="26.8"/>
	<path class="st4" d="M83.9,93.9c-1.9,4.3-4.8,8-8.5,10.8l-40.6-32c1.9-4.3,4.8-8.1,8.5-10.8L83.9,93.9z"/>
	<path class="st4" d="M117.9,93.9c1.9,4.3,4.8,8,8.5,10.8l40.6-32c-1.9-4.3-4.8-8.1-8.5-10.8L117.9,93.9z"/>
	<g>
		<g>
			<path class="st4" d="M143.8,149.1c-0.2,0.4-0.4,0.7-0.6,1.1c-6.9,10.9-23.5,18.7-42.8,18.8c-19.3-0.1-35.9-7.9-42.8-18.8
				c1.6,2.2,4.6,3.6,7.9,3.4c0.1,0,0.2,0,0.3,0c0.2,0,0.5,0,0.7-0.1c0.1,0,0.2,0,0.2,0c0.2,0,0.4-0.1,0.6-0.2c0.1,0,0.2,0,0.3-0.1
				c0.1,0,0.2-0.1,0.3-0.1c0,0,0.1,0,0.1,0c0.1,0,0.2-0.1,0.3-0.1c0,0,0,0,0,0c0.2-0.1,0.3-0.1,0.5-0.2c0.1,0,0.2-0.1,0.3-0.1
				c0.2-0.1,0.4-0.2,0.5-0.3c0.2-0.1,0.4-0.2,0.6-0.4c0,0,0.1,0,0.1-0.1c0.2-0.1,0.3-0.2,0.5-0.4c0,0,0,0,0.1,0
				c0.1,0,0.1-0.1,0.2-0.1c0.1-0.1,0.2-0.1,0.2-0.2c0.1-0.1,0.2-0.1,0.2-0.2c0.1-0.1,0.3-0.3,0.4-0.4c0,0,0,0,0,0
				c0.1-0.2,0.2-0.3,0.3-0.4c0.4-0.5,0.6-1.1,0.8-1.7c0-0.1,0-0.1,0.1-0.2c0.1-0.4,0.2-0.7,0.2-1.1c0-0.4,0-0.8,0-1.2
				c0-0.1,0-0.2,0-0.2c0-0.1,0-0.2,0-0.2c0,0,0,0,0,0c0-0.1,0-0.3-0.1-0.4c0-0.2-0.1-0.3-0.2-0.5c-0.1-0.2-0.1-0.3-0.2-0.5
				c0-0.1-0.1-0.2-0.2-0.3c-0.2-0.4-0.4-0.7-0.7-1.1c-0.1-0.2-0.3-0.4-0.5-0.5c0,0,0,0,0-0.1c-0.1-0.1-0.3-0.2-0.4-0.4
				c0,0-0.1-0.1-0.1-0.1c-0.7-0.6-1.6-1.1-2.5-1.5c-0.1,0-0.2-0.1-0.3-0.1c-0.5-0.2-1.1-0.3-1.6-0.4c-0.2,0-0.4-0.1-0.6-0.1
				c0,0-0.1,0-0.1,0c-0.3,0-0.5,0-0.8,0H72l27.9,0h0.8l35,0h0.1c3,0,5.9,1.3,7.4,3.5C144.6,145.1,144.6,147.3,143.8,149.1z"/>
			<path class="st4" d="M67,153.4c-0.1,0-0.2,0-0.2,0.1c-0.1,0-0.1,0-0.2,0c-0.2,0-0.5,0.1-0.7,0.1C66.2,153.5,66.6,153.5,67,153.4z
				"/>
			<path class="st4" d="M70.3,151.9c0.2-0.1,0.3-0.2,0.5-0.4c-0.7,0.6-1.5,1.1-2.4,1.4c0.2-0.1,0.3-0.1,0.5-0.2
				c0.2-0.1,0.3-0.2,0.5-0.3c0.2-0.1,0.3-0.2,0.5-0.3C70,152.1,70.2,152,70.3,151.9z"/>
			<path class="st4" d="M72.7,149c0.1-0.2,0.2-0.4,0.2-0.6c0,0.1,0,0.1,0,0.2C72.8,148.7,72.8,148.9,72.7,149
				C72.7,149,72.7,149,72.7,149z"/>
			<path class="st4" d="M73.1,147.9c0,0.1,0,0.1,0,0.2c0,0,0,0.1-0.1,0.2c0,0-0.1,0.1-0.1,0.2C73,148.3,73,148.1,73.1,147.9z"/>
			<path class="st4" d="M72.4,149.5c0.1-0.2,0.2-0.3,0.2-0.5C72.6,149.2,72.5,149.4,72.4,149.5C72.4,149.6,72.4,149.6,72.4,149.5z"
				/>
			<path class="st4" d="M73.2,147.1c0,0.3-0.1,0.6-0.1,0.8C73.1,147.6,73.2,147.3,73.2,147.1z"/>
			<path class="st4" d="M73.2,147.1c0,0.3-0.1,0.6-0.1,0.8c0,0.1,0,0.1,0,0.2c0,0,0,0.1-0.1,0.2c0,0-0.1,0.1-0.1,0.2
				c0,0,0,0.1,0,0.2c0,0.1-0.1,0.2-0.1,0.3c0,0,0,0.1,0,0.1v0c-0.1,0.2-0.2,0.4-0.3,0.5c-0.1,0.1-0.2,0.3-0.2,0.4
				c-0.1,0.2-0.2,0.3-0.3,0.4c0,0,0,0,0,0c-0.1,0.2-0.3,0.3-0.4,0.4c-0.1,0.1-0.1,0.2-0.2,0.2c-0.1,0.1-0.1,0.1-0.2,0.2
				c0,0-0.1,0.1-0.2,0.1c0,0,0,0-0.1,0c-0.2,0.2-0.4,0.3-0.5,0.4c-0.1,0.1-0.3,0.2-0.4,0.3c-0.1,0-0.1,0.1-0.2,0.1
				c-0.1,0.1-0.2,0.1-0.3,0.2c-0.1,0.1-0.2,0.1-0.3,0.1c-0.1,0-0.2,0.1-0.3,0.1c-0.2,0.1-0.3,0.2-0.5,0.2c0,0,0,0,0,0
				c-0.1,0-0.2,0.1-0.3,0.1c0,0-0.1,0-0.1,0c-0.1,0-0.2,0.1-0.3,0.1c-0.1,0-0.2,0-0.3,0.1c-0.1,0-0.2,0-0.2,0.1c0,0-0.1,0-0.1,0
				c-0.1,0-0.2,0-0.2,0.1c-0.1,0-0.1,0-0.2,0c-0.2,0-0.5,0.1-0.7,0.1c-0.1,0-0.2,0-0.3,0c-3.4,0.2-6.3-1.2-7.9-3.4
				c-0.2-0.4-0.4-0.7-0.6-1.1c-0.9-1.8-0.9-4.1,0.5-6.2c1.4-2.2,4.4-3.5,7.4-3.5h0.1c0.3,0,0.5,0,0.8,0c0,0,0.1,0,0.1,0
				c0.2,0,0.4,0,0.6,0.1c0.6,0.1,1.1,0.2,1.6,0.4c0.1,0,0.2,0.1,0.3,0.1c0.9,0.4,1.8,0.9,2.5,1.5c0,0,0.1,0.1,0.1,0.1
				c0.1,0.1,0.3,0.2,0.4,0.4c0,0,0,0,0,0.1c0.2,0.2,0.3,0.3,0.5,0.5c0.3,0.3,0.5,0.7,0.7,1.1c0.1,0.1,0.1,0.2,0.2,0.3
				c0.1,0.2,0.2,0.3,0.2,0.5c0.1,0.2,0.1,0.3,0.2,0.5c0,0.1,0.1,0.3,0.1,0.4c0,0,0,0,0,0c0,0.1,0,0.2,0,0.2c0,0.1,0,0.2,0,0.2
				C73.3,146.3,73.3,146.7,73.2,147.1z"/>
		</g>
		<g>
			<path class="st5" d="M100,139.5V169c-19.1-0.2-35.6-8-42.4-18.8c1.6,2.2,4.6,3.6,7.9,3.4c0.1,0,0.2,0,0.3,0
				c0.2,0,0.5-0.1,0.7-0.1c0.1,0,0.2,0,0.2,0c0.2,0,0.4-0.1,0.6-0.2c0.1,0,0.2-0.1,0.3-0.1c0.1,0,0.2-0.1,0.3-0.1c0,0,0.1,0,0.1,0
				c0.1,0,0.2-0.1,0.3-0.1c0,0,0,0,0,0c0.2-0.1,0.3-0.1,0.5-0.2c0,0,0.1,0,0.1-0.1c0,0,0,0,0.1,0l0,0c0,0,0,0,0,0c0,0,0,0,0,0
				c0,0,0,0,0,0c0,0,0,0,0,0c0,0,0.1,0,0.1-0.1c0,0,0,0,0,0c0.1,0,0.1-0.1,0.2-0.1c0,0,0.1,0,0.1-0.1c0,0,0.1,0,0.1-0.1
				c0.2-0.1,0.3-0.2,0.5-0.3c0,0,0,0,0.1-0.1c0,0,0,0,0,0c0,0,0,0,0,0c0,0,0.1-0.1,0.1-0.1c0.1,0,0.1-0.1,0.2-0.1c0,0,0,0,0,0
				c0,0,0,0,0.1-0.1c0,0,0,0,0.1,0c0.1,0,0.1-0.1,0.2-0.1c0.1-0.1,0.2-0.1,0.2-0.2c0.1-0.1,0.2-0.1,0.2-0.2c0.1-0.1,0.3-0.3,0.4-0.5
				c0,0,0,0,0,0c0.1-0.2,0.2-0.3,0.3-0.5c0.1-0.1,0.2-0.3,0.2-0.4l0,0c0,0,0,0,0,0c0-0.1,0.1-0.1,0.1-0.2c0-0.1,0.1-0.1,0.1-0.2
				c0,0,0,0,0-0.1c0.1-0.3,0.3-0.6,0.3-0.9c0-0.1,0-0.1,0.1-0.2c0.1-0.4,0.2-0.7,0.2-1.1c0-0.4,0-0.8,0-1.2c0-0.1,0-0.1,0-0.2
				c0-0.1,0-0.2,0-0.2c0,0,0,0,0,0c0-0.1,0-0.3-0.1-0.4c0-0.2-0.1-0.4-0.2-0.5c-0.1-0.2-0.1-0.4-0.2-0.5c0-0.1-0.1-0.2-0.2-0.3
				c-0.2-0.4-0.4-0.7-0.7-1.1c-0.1-0.2-0.3-0.4-0.5-0.5c0,0,0,0,0-0.1c-0.1-0.1-0.3-0.3-0.4-0.4c0,0-0.1-0.1-0.1-0.1
				c-0.7-0.6-1.6-1.1-2.5-1.5c-0.1,0-0.2-0.1-0.3-0.1c-0.5-0.2-1.1-0.3-1.6-0.4c-0.2,0-0.4-0.1-0.6-0.1c0,0-0.1,0-0.1,0
				c-0.3,0-0.5,0-0.8,0H72L100,139.5L100,139.5z"/>
			<path class="st5" d="M67,153.4c-0.1,0-0.2,0-0.2,0.1c-0.1,0-0.1,0-0.2,0c-0.2,0-0.5,0.1-0.7,0.1C66.2,153.5,66.6,153.5,67,153.4z
				"/>
			<path class="st5" d="M70.3,151.9C70.3,151.9,70.3,151.9,70.3,151.9c-0.2,0.1-0.3,0.2-0.5,0.3C70,152.1,70.2,152,70.3,151.9z"/>
			<path class="st5" d="M72.9,148.4c0,0.1,0,0.1,0,0.2c0,0.1-0.1,0.2-0.1,0.3C72.8,148.8,72.9,148.6,72.9,148.4z"/>
			<path class="st5" d="M73.1,147.9c0,0.1,0,0.2,0,0.2c0,0,0,0.1-0.1,0.2c0,0.1-0.1,0.1-0.1,0.2C73,148.3,73,148.1,73.1,147.9z"/>
			<path class="st5" d="M73.2,147.1c0,0.3-0.1,0.6-0.1,0.8c0,0.2-0.1,0.4-0.2,0.5c-0.1,0.2-0.1,0.3-0.2,0.5c0,0,0,0,0,0
				c0,0,0,0.1,0,0.1v0c0,0,0,0.1,0,0.1c0,0,0,0,0,0.1c0,0.1-0.1,0.1-0.1,0.2c0,0.1-0.1,0.1-0.1,0.2c0,0,0,0,0,0h0v0
				c-0.1,0.1-0.2,0.3-0.2,0.4c-0.1,0.2-0.2,0.3-0.3,0.5c0,0,0,0,0,0c-0.1,0.2-0.3,0.3-0.4,0.5c-0.1,0.1-0.1,0.2-0.2,0.2
				c-0.1,0.1-0.1,0.1-0.2,0.2c0,0-0.1,0.1-0.2,0.1c0,0,0,0-0.1,0c0,0,0,0-0.1,0.1c0,0,0,0,0,0c-0.1,0.1-0.1,0.1-0.2,0.1
				c0,0-0.1,0.1-0.1,0.1c0,0,0,0,0,0c0,0,0,0,0,0c-0.1,0.1-0.3,0.2-0.5,0.3c0,0-0.1,0-0.1,0.1c0,0-0.1,0-0.1,0.1c0,0-0.1,0-0.1,0.1
				c-0.1,0-0.1,0.1-0.2,0.1c0,0,0,0,0,0c0,0-0.1,0-0.1,0.1c0,0,0,0,0,0c0,0,0,0,0,0c0,0,0,0,0,0c0,0,0,0,0,0l0,0c0,0,0,0,0,0
				c0,0,0,0,0,0c0,0-0.1,0-0.1,0.1c-0.2,0.1-0.3,0.2-0.5,0.2c0,0,0,0,0,0c-0.1,0-0.2,0.1-0.3,0.1c0,0-0.1,0-0.1,0
				c-0.1,0-0.2,0.1-0.3,0.1c-0.1,0-0.2,0-0.3,0.1c-0.1,0-0.2,0-0.2,0.1c0,0-0.1,0-0.1,0c-0.4,0.1-0.8,0.2-1.2,0.2
				c-0.1,0-0.2,0-0.3,0c-3.4,0.3-6.3-1.2-7.9-3.4c-0.2-0.4-0.4-0.7-0.6-1.1c-0.9-1.8-0.9-4.1,0.5-6.2c1.4-2.2,4.4-3.5,7.4-3.5h0.1
				c0.3,0,0.5,0,0.8,0c0,0,0.1,0,0.1,0c0.2,0,0.4,0,0.6,0.1c0.6,0.1,1.1,0.2,1.6,0.4c0.1,0,0.2,0.1,0.3,0.1c0.9,0.4,1.8,0.9,2.5,1.5
				c0,0,0.1,0.1,0.1,0.1c0.1,0.1,0.3,0.2,0.4,0.4c0,0,0,0,0,0.1c0.2,0.2,0.3,0.3,0.5,0.5c0.3,0.3,0.5,0.7,0.7,1.1
				c0.1,0.1,0.1,0.2,0.2,0.3c0.1,0.2,0.2,0.3,0.2,0.5c0.1,0.2,0.1,0.3,0.2,0.5c0,0.1,0.1,0.3,0.1,0.4c0,0,0,0,0,0c0,0.1,0,0.2,0,0.2
				c0,0.1,0,0.2,0,0.2C73.3,146.3,73.3,146.7,73.2,147.1z"/>
			<path class="st5" d="M67,153.4c-0.1,0-0.2,0-0.2,0.1c-0.1,0-0.1,0-0.2,0c-0.2,0-0.5,0.1-0.7,0.1C66.2,153.5,66.6,153.5,67,153.4z
				"/>
			<path class="st5" d="M70.3,151.9C70.3,151.9,70.3,151.9,70.3,151.9c-0.2,0.1-0.3,0.2-0.5,0.3C70,152.1,70.2,152,70.3,151.9z"/>
			<path class="st5" d="M72.7,148.9c0.1-0.2,0.1-0.3,0.2-0.5c0,0.1,0,0.1,0,0.2C72.8,148.7,72.8,148.8,72.7,148.9
				C72.7,148.9,72.7,148.9,72.7,148.9z"/>
			<path class="st5" d="M73.1,147.9c0,0.1,0,0.2,0,0.2c0,0,0,0.1-0.1,0.2c0,0.1-0.1,0.1-0.1,0.2C73,148.3,73,148.1,73.1,147.9z"/>
		</g>
	</g>
	<g>
		<path class="st6" d="M100,157.9h19.7c0,14.6-8.9,26.6-19.7,26.6s-19.7-12-19.7-26.6c0-0.1,0-0.2,0-0.2L100,157.9z"/>
		<rect x="80.3" y="152.1" class="st6" width="39.4" height="6.5"/>
		<path class="st7" d="M100,158.6v25.9c-10.7,0-19.5-11.6-19.7-25.9H100z"/>
		<polygon class="st7" points="100,152.1 100,157.9 80.3,157.7 80.3,152.1 		"/>
		<path class="st7" d="M100,157.9v0.6H80.3c0-0.2,0-0.4,0-0.6v-0.2L100,157.9z"/>
		<path class="st8" d="M128.2,155.4c0,0.2,0,0.4,0,0.6h0V155.4z"/>
	</g>
</g>
</svg>
