<?xml version="1.0" encoding="UTF-8" standalone="no"?>
<svg
   xmlns:dc="http://purl.org/dc/elements/1.1/"
   xmlns:cc="http://creativecommons.org/ns#"
   xmlns:rdf="http://www.w3.org/1999/02/22-rdf-syntax-ns#"
   xmlns:svg="http://www.w3.org/2000/svg"
   xmlns="http://www.w3.org/2000/svg"
   xmlns:sodipodi="http://sodipodi.sourceforge.net/DTD/sodipodi-0.dtd"
   xmlns:inkscape="http://www.inkscape.org/namespaces/inkscape"
   inkscape:version="1.0 (4035a4fb49, 2020-05-01)"
   sodipodi:docname="ic_tease-01.svg"
   xml:space="preserve"
   style="enable-background:new 0 0 1080 1920;"
   viewBox="0 0 1080 1920"
   y="0px"
   x="0px"
   id="Layer_1"
   version="1.1"><metadata
   id="metadata83"><rdf:RDF><cc:Work
       rdf:about=""><dc:format>image/svg+xml</dc:format><dc:type
         rdf:resource="http://purl.org/dc/dcmitype/StillImage" /><dc:title></dc:title></cc:Work></rdf:RDF></metadata><defs
   id="defs81">
		
		
	
			
			
			
			
			
			
			
			
		</defs><sodipodi:namedview
   inkscape:guide-bbox="true"
   showguides="true"
   showborder="false"
   inkscape:current-layer="g76"
   inkscape:window-maximized="1"
   inkscape:window-y="29"
   inkscape:window-x="-9"
   inkscape:cy="517.46373"
   inkscape:cx="461.94846"
   inkscape:zoom="0.5"
   showgrid="false"
   id="namedview79"
   inkscape:window-height="1013"
   inkscape:window-width="1920"
   inkscape:pageshadow="2"
   inkscape:pageopacity="0"
   guidetolerance="10"
   gridtolerance="10"
   objecttolerance="10"
   borderopacity="1"
   bordercolor="#666666"
   pagecolor="#ffffff" />
<style
   id="style2"
   type="text/css">
	.st0{fill:#1E9CBD;}
	.st1{fill:#2BCDDD;}
	.st2{fill:#199DBE;}
	.st3{fill:#197D96;}
	.st4{fill:#020202;}
	.st5{fill:#1B242D;}
	.st6{fill:#BB3C61;}
	.st7{fill:#F8487E;}
	.st8{fill:#B83C60;}
</style>

<g
   transform="matrix(6.9094711,0,0,6.9094711,-1846.8061,-4276.241)"
   id="g76">
	
	
	
	
	
	
	
	
	<g
   id="g1031"><path
     class="st0"
     d="m 394.9,761 h -59.8 c -5,0 -9.1,-4.1 -9.1,-9.1 v -44.8 c 0,-5 4.1,-9.1 9.1,-9.1 h 59.8 c 5,0 9.1,4.1 9.1,9.1 v 44.8 c 0,5 -4.1,9.1 -9.1,9.1 z"
     id="path6" /><circle
     class="st0"
     cx="343"
     cy="697"
     r="71"
     id="circle8" /><path
     class="st1"
     d="m 343.2,697 v 71 c 0,0 0,0 0,0 -38.9,0 -71,-32.1 -71,-71 0,-38.9 32.1,-71 71,-71 z"
     id="path10" /><g
     id="g989"
     transform="translate(107.66039,-23.593603)"><g
       id="g940"><path
         class="st4"
         d="m 266.64326,755.3691 c -0.2,0.3 -0.3,0.5 -0.5,0.8 -4.9,7.7 -16.7,13.3 -30.4,13.3 -13.7,-0.1 -25.5,-5.6 -30.4,-13.3 1.1,1.6 3.3,2.6 5.6,2.4 0.1,0 0.1,0 0.2,0 0.2,0 0.3,0 0.5,-0.1 0.1,0 0.1,0 0.2,0 0.1,0 0.3,-0.1 0.4,-0.1 0.1,0 0.1,0 0.2,-0.1 0.1,0 0.1,0 0.2,-0.1 0,0 0,0 0.1,0 0.1,0 0.1,-0.1 0.2,-0.1 0,0 0,0 0,0 0.1,0 0.2,-0.1 0.3,-0.2 0.1,0 0.1,0 0.2,-0.1 0.1,-0.1 0.3,-0.1 0.4,-0.2 0.1,-0.1 0.3,-0.2 0.4,-0.3 0,0 0,0 0.1,-0.1 0.1,-0.1 0.2,-0.2 0.3,-0.3 0,0 0,0 0,0 0,0 0.1,-0.1 0.1,-0.1 0.1,0 0.1,-0.1 0.2,-0.1 0.1,-0.1 0.1,-0.1 0.2,-0.2 0.1,-0.1 0.2,-0.2 0.3,-0.3 0,0 0,0 0,0 0.1,-0.1 0.1,-0.2 0.2,-0.3 0.3,-0.4 0.5,-0.8 0.6,-1.2 0,0 0,-0.1 0,-0.1 0.1,-0.3 0.1,-0.5 0.1,-0.7 0,-0.3 0,-0.6 0,-0.8 0,-0.1 0,-0.1 0,-0.2 0,-0.1 0,-0.1 0,-0.2 0,0 0,0 0,0 0,-0.1 0,-0.2 -0.1,-0.3 0,-0.1 -0.1,-0.2 -0.1,-0.4 0,-0.1 -0.1,-0.2 -0.1,-0.4 0,-0.1 -0.1,-0.2 -0.1,-0.2 -0.1,-0.3 -0.3,-0.5 -0.5,-0.8 -0.1,-0.1 -0.2,-0.3 -0.3,-0.4 0,0 0,0 0,0 -0.1,-0.1 -0.2,-0.2 -0.3,-0.3 0,0 -0.1,-0.1 -0.1,-0.1 -0.5,-0.4 -1.1,-0.8 -1.8,-1 -0.1,0 -0.1,-0.1 -0.2,-0.1 -0.4,-0.1 -0.8,-0.2 -1.1,-0.3 -0.1,0 -0.3,0 -0.4,-0.1 0,0 0,0 -0.1,0 -0.2,0 -0.4,0 -0.6,0 h 5.1 19.8 0.6 24.9 0.1 c 2.1,0 4.2,0.9 5.2,2.5 1,1.7 1,3.3 0.4,4.6 z"
         id="path20" /><path
         id="path936"
         d="m 204.59766,755.3691 c 0.2,0.3 0.3,0.5 0.5,0.8 4.9,7.7 16.7,13.3 30.4,13.3 13.7,-0.1 25.5,-5.6 30.4,-13.3 -1.1,1.6 -3.3,2.6 -5.6,2.4 -0.1,0 -0.1,0 -0.2,0 -0.2,0 -0.3,0 -0.5,-0.1 -0.1,0 -0.1,0 -0.2,0 -0.1,0 -0.3,-0.1 -0.4,-0.1 -0.1,0 -0.1,0 -0.2,-0.1 -0.1,0 -0.1,0 -0.2,-0.1 0,0 0,0 -0.1,0 -0.1,0 -0.1,-0.1 -0.2,-0.1 0,0 0,0 0,0 -0.1,0 -0.2,-0.1 -0.3,-0.2 -0.1,0 -0.1,0 -0.2,-0.1 -0.1,-0.1 -0.3,-0.1 -0.4,-0.2 -0.1,-0.1 -0.3,-0.2 -0.4,-0.3 0,0 0,0 -0.1,-0.1 -0.1,-0.1 -0.2,-0.2 -0.3,-0.3 0,0 0,0 0,0 0,0 -0.1,-0.1 -0.1,-0.1 -0.1,0 -0.1,-0.1 -0.2,-0.1 -0.1,-0.1 -0.1,-0.1 -0.2,-0.2 -0.1,-0.1 -0.2,-0.2 -0.3,-0.3 0,0 0,0 0,0 -0.1,-0.1 -0.1,-0.2 -0.2,-0.3 -0.3,-0.4 -0.5,-0.8 -0.6,-1.2 0,0 0,-0.1 0,-0.1 -0.1,-0.3 -0.1,-0.5 -0.1,-0.7 0,-0.3 0,-0.6 0,-0.8 0,-0.1 0,-0.1 0,-0.2 0,-0.1 0,-0.1 0,-0.2 0,0 0,0 0,0 0,-0.1 0,-0.2 0.1,-0.3 0,-0.1 0.1,-0.2 0.1,-0.4 0,-0.1 0.1,-0.2 0.1,-0.4 0,-0.1 0.1,-0.2 0.1,-0.2 0.1,-0.3 0.3,-0.5 0.5,-0.8 0.1,-0.1 0.2,-0.3 0.3,-0.4 0,0 0,0 0,0 0.1,-0.1 0.2,-0.2 0.3,-0.3 0,0 0.1,-0.1 0.1,-0.1 0.5,-0.4 1.1,-0.8 1.8,-1 0.1,0 0.1,-0.1 0.2,-0.1 0.4,-0.1 0.8,-0.2 1.1,-0.3 0.1,0 0.3,0 0.4,-0.1 0,0 0,0 0.1,0 0.2,0 0.4,0 0.6,0 h -5.1 -19.8 -0.6 -24.9 -0.1 c -2.1,0 -4.2,0.9 -5.2,2.5 -1,1.7 -1,3.3 -0.4,4.6 z"
         class="st4" /></g><path
       id="path944"
       style="fill:#1b242d;fill-opacity:1;stroke-width:0.999113"
       d="m 235.549,748.27047 h -0.4354 -24.85589 -0.0999 c -2.09629,0 -4.19266,0.89996 -5.19089,2.49996 -0.99823,1.7 -0.99821,3.29995 -0.39928,4.59995 0.19965,0.3 0.29952,0.49996 0.49917,0.79996 4.89134,7.7 16.67064,13.30008 30.34644,13.30008 0.0456,-2.9e-4 0.0901,-0.004 0.13573,-0.004 z" /></g><path
     class="st2"
     d="m 333.1,685.2 c 0,2.7 -0.5,5.2 -1.6,7.5 -1.3,3.1 -3.4,5.7 -6.1,7.7 -3.2,2.4 -7.1,3.8 -11.4,3.8 -10.5,0 -19,-8.5 -19,-19 0,-2.7 0.5,-5.2 1.6,-7.5 1.3,-3.1 3.4,-5.7 6.1,-7.7 3.2,-2.4 7.1,-3.8 11.4,-3.8 10.5,0 19,8.5 19,19 z"
     id="path12" /><circle
     class="st3"
     cx="373"
     cy="685"
     r="19"
     id="circle14" /><path
     class="st4"
     d="m 331.6,692.7 c -1.3,3.1 -3.4,5.7 -6.1,7.7 l -28.8,-22.8 c 1.3,-3.1 3.4,-5.7 6.1,-7.7 z"
     id="path16" /><path
     class="st4"
     d="m 355.7,692.7 c 1.3,3.1 3.4,5.7 6.1,7.7 l 28.8,-22.8 c -1.3,-3.1 -3.4,-5.7 -6.1,-7.7 z"
     id="path18" /><g
     id="g74">
		<path
   class="st6"
   d="m 343,738.1 h 14 c 0,10.3 -6.3,18.9 -14,18.9 -7.7,0 -14,-8.5 -14,-18.9 0,-0.1 0,-0.1 0,-0.2 z"
   id="path62" />
		<rect
   x="329"
   y="734"
   class="st6"
   width="28"
   height="4.5999999"
   id="rect64" />
		<path
   class="st7"
   d="M 343,738.6 V 757 c -7.6,0 -13.8,-8.3 -14,-18.4 z"
   id="path66" />
		<polygon
   class="st7"
   points="343,734 343,738.1 329,738 329,734 "
   id="polygon68" />
		<path
   class="st7"
   d="m 343,738.1 v 0.5 h -14 c 0,-0.2 0,-0.3 0,-0.5 V 738 Z"
   id="path70" />
		<path
   class="st8"
   d="m 363,736.3 c 0,0.2 0,0.3 0,0.5 v 0 z"
   id="path72" />
	</g></g>
</g>
</svg>
