<?xml version="1.0" encoding="UTF-8" standalone="no"?>
<svg
   xmlns:dc="http://purl.org/dc/elements/1.1/"
   xmlns:cc="http://creativecommons.org/ns#"
   xmlns:rdf="http://www.w3.org/1999/02/22-rdf-syntax-ns#"
   xmlns:svg="http://www.w3.org/2000/svg"
   xmlns="http://www.w3.org/2000/svg"
   xmlns:sodipodi="http://sodipodi.sourceforge.net/DTD/sodipodi-0.dtd"
   xmlns:inkscape="http://www.inkscape.org/namespaces/inkscape"
   inkscape:version="1.0 (4035a4fb49, 2020-05-01)"
   sodipodi:docname="logout (1).svg"
   id="svg10"
   version="1.1"
   width="512"
   viewBox="0 0 24 24"
   height="512"
   enable-background="new 0 0 24 24">
  <metadata
     id="metadata16">
    <rdf:RDF>
      <cc:Work
         rdf:about="">
        <dc:format>image/svg+xml</dc:format>
        <dc:type
           rdf:resource="http://purl.org/dc/dcmitype/StillImage" />
      </cc:Work>
    </rdf:RDF>
  </metadata>
  <defs
     id="defs14" />
  <sodipodi:namedview
     inkscape:current-layer="svg10"
     inkscape:window-maximized="1"
     inkscape:window-y="29"
     inkscape:window-x="-9"
     inkscape:cy="264.73682"
     inkscape:cx="-1693.8302"
     inkscape:zoom="0.1453574"
     showgrid="false"
     id="namedview12"
     inkscape:window-height="1013"
     inkscape:window-width="1920"
     inkscape:pageshadow="2"
     inkscape:pageopacity="0"
     guidetolerance="10"
     gridtolerance="10"
     objecttolerance="10"
     borderopacity="1"
     bordercolor="#666666"
     pagecolor="#ffffff" />
  <path
     id="path2"
     fill="#42a5f5"
     d="m 11.50075,0 h 9.75 c 1.517,0 2.75,1.233 2.75,2.75 v 18.5 c 0,1.517 -1.233,2.75 -2.75,2.75 h -9.75 c -1.517,0 -2.75,-1.233 -2.75,-2.75 V 15 9 2.75 c 0,-1.517 1.233,-2.75 2.75,-2.75 z" />
  <path
     id="path4"
     d="m 10.75075,24 h 10.5 c 1.517,0 2.75,-1.233 2.75,-2.75 V 2.75 c 0,-1.517 -1.233,-2.75 -2.75,-2.75 h -10.5 c -1.517,0 -2.75,1.233 -2.75,2.75 v 5.5 c 0,0.414 0.336,0.75 0.75,0.75 0.414,0 0.75,-0.336 0.75,-0.75 v -5.5 c 0,-0.689 0.561,-1.25 1.25,-1.25 h 10.5 c 0.689,0 1.25,0.561 1.25,1.25 v 18.5 c 0,0.689 -0.561,1.25 -1.25,1.25 h -10.5 c -0.689,0 -1.25,-0.561 -1.25,-1.25 v -5.5 c 0,-0.414 -0.336,-0.75 -0.75,-0.75 -0.414,0 -0.75,0.336 -0.75,0.75 v 5.5 c 0,1.517 1.233,2.75 2.75,2.75 z" />
  <path
     id="path6"
     d="m 0.75075,12.75 h 14.5 c 0.414,0 0.75,-0.336 0.75,-0.75 0,-0.414 -0.336,-0.75 -0.75,-0.75 h -14.5 c -0.414,0 -0.75,0.336 -0.75,0.75 0,0.414 0.336,0.75 0.75,0.75 z" />
  <path
     id="path8"
     d="m 4.75075,16.75 c 0.192,0 0.384,-0.073 0.53,-0.22 0.293,-0.293 0.293,-0.768 0,-1.061 l -3.47,-3.47 3.47,-3.47 c 0.293,-0.293 0.293,-0.768 0,-1.061 -0.293,-0.293 -0.768,-0.293 -1.061,0 l -4,4 c -0.293,0.293 -0.293,0.768 0,1.061 l 4,4 c 0.147,0.148 0.339,0.221 0.531,0.221 z" />
</svg>
