<?xml version="1.0" encoding="UTF-8" standalone="no"?>
<svg
   xmlns:dc="http://purl.org/dc/elements/1.1/"
   xmlns:cc="http://creativecommons.org/ns#"
   xmlns:rdf="http://www.w3.org/1999/02/22-rdf-syntax-ns#"
   xmlns:svg="http://www.w3.org/2000/svg"
   xmlns="http://www.w3.org/2000/svg"
   xmlns:sodipodi="http://sodipodi.sourceforge.net/DTD/sodipodi-0.dtd"
   xmlns:inkscape="http://www.inkscape.org/namespaces/inkscape"
   inkscape:version="1.0 (4035a4fb49, 2020-05-01)"
   sodipodi:docname="text_paw.svg"
   xml:space="preserve"
   style="enable-background:new 0 0 1080 1923.8;"
   viewBox="0 0 1080 1923.8"
   y="0px"
   x="0px"
   id="Layer_1_2_"
   version="1.1"><metadata
   id="metadata678"><rdf:RDF><cc:Work
       rdf:about=""><dc:format>image/svg+xml</dc:format><dc:type
         rdf:resource="http://purl.org/dc/dcmitype/StillImage" /><dc:title></dc:title></cc:Work></rdf:RDF></metadata><defs
   id="defs676">
	
		
	
</defs><sodipodi:namedview
   inkscape:current-layer="Layer_1_2_"
   inkscape:window-maximized="1"
   inkscape:window-y="29"
   inkscape:window-x="-9"
   inkscape:cy="1144.6839"
   inkscape:cx="540"
   inkscape:zoom="0.43767542"
   showgrid="false"
   id="namedview674"
   inkscape:window-height="1013"
   inkscape:window-width="1920"
   inkscape:pageshadow="2"
   inkscape:pageopacity="0"
   guidetolerance="10"
   gridtolerance="10"
   objecttolerance="10"
   borderopacity="1"
   bordercolor="#666666"
   pagecolor="#ffffff" />
<style
   id="style2"
   type="text/css">
	.st0{display:none;}
	.st1{display:inline;fill:#FFFFFF;}
	.st2{font-family:'Archangelsk';}
	.st3{font-size:150px;}
	.st4{font-size:151.9496px;}
	.st5{fill:url(#SVGID_1_);}
	.st6{fill:url(#SVGID_2_);}
	.st7{fill:url(#SVGID_3_);}
	.st8{fill:url(#SVGID_4_);}
	.st9{fill:url(#SVGID_5_);}
	.st10{fill:url(#SVGID_6_);}
	.st11{fill:url(#SVGID_7_);}
	.st12{fill:url(#SVGID_8_);}
	.st13{fill:url(#SVGID_9_);}
	.st14{fill:url(#SVGID_10_);}
	.st15{fill:url(#SVGID_11_);}
	.st16{fill:url(#SVGID_12_);}
	.st17{fill:url(#SVGID_13_);}
	.st18{fill:url(#SVGID_14_);}
	.st19{fill:url(#SVGID_15_);}
	.st20{fill:url(#SVGID_16_);}
	.st21{fill:url(#SVGID_17_);}
	.st22{fill:url(#SVGID_18_);}
	.st23{fill:url(#SVGID_19_);}
	.st24{fill:url(#SVGID_20_);}
	.st25{fill:url(#SVGID_21_);}
	.st26{fill:url(#SVGID_22_);}
	.st27{fill:url(#SVGID_23_);}
	.st28{fill:url(#SVGID_24_);}
	.st29{fill:url(#SVGID_25_);}
	.st30{fill:url(#SVGID_26_);}
	.st31{fill:url(#SVGID_27_);}
	.st32{fill:url(#SVGID_28_);}
	.st33{display:inline;}
	.st34{font-size:161.7342px;}
	.st35{font-size:162.5056px;}
</style>
<g
   class="st0"
   id="_x3C_Linked_File_x3E__xA0__x2B__xA0__x3C_Type_x3E__xA0__x2B__xA0__x3C_Rectangle_x3E__xA0_Image_1_">
</g>
<g
   class="st0"
   id="abstract_1_">
	<text
   id="text5"
   class="st1 st2 st3"
   transform="matrix(1.1276 0 0 1 243.2773 997.3672)">abstract</text>
</g>
<g
   class="st0"
   id="_x3C_Rectangle_x3E__xA0_Image_3_">
</g>
<g
   class="st0"
   id="wallpaper_1_">
	<text
   id="text9"
   class="st1 st2 st4"
   transform="matrix(0.7052 -0.7105 0.7087 0.7055 347.9524 1680.5033)">wallpaper</text>
</g>
<g
   transform="translate(-15.993581,632.88909)"
   id="g658">
		
			<linearGradient
   id="SVGID_1_"
   gradientUnits="userSpaceOnUse"
   x1="150.1288"
   y1="1136.9537"
   x2="250.7588"
   y2="1136.9537"
   gradientTransform="matrix(1,0,0,-1,0,1924)">
			<stop
   offset="1.821087e-07"
   style="stop-color:#000000"
   id="stop14" />
			<stop
   offset="0.4019"
   style="stop-color:#010002"
   id="stop16" />
			<stop
   offset="0.5467"
   style="stop-color:#070209"
   id="stop18" />
			<stop
   offset="0.6499"
   style="stop-color:#100414"
   id="stop20" />
			<stop
   offset="0.7334"
   style="stop-color:#1C0825"
   id="stop22" />
			<stop
   offset="0.8048"
   style="stop-color:#2D0D3B"
   id="stop24" />
			<stop
   offset="0.8681"
   style="stop-color:#421257"
   id="stop26" />
			<stop
   offset="0.9254"
   style="stop-color:#5A1977"
   id="stop28" />
			<stop
   offset="0.9763"
   style="stop-color:#76219B"
   id="stop30" />
			<stop
   offset="1"
   style="stop-color:#8525AF"
   id="stop32" />
		</linearGradient>
		<path
   class="st5"
   d="m 250.8,767.6 v 9.7 c 0,19.4 -10.1,29.1 -30.2,29.1 h -50.3 v 29.1 h -20.1 v -97 h 70.4 c 20.1,0 30.2,9.7 30.2,29.1 z m -20.2,0 c 0,-6.5 -3.4,-9.7 -10.1,-9.7 H 170.2 V 787 h 50.3 c 6.7,0 10.1,-3.2 10.1,-9.7 z"
   id="path35"
   style="fill:url(#SVGID_1_)" />
		
			<linearGradient
   id="SVGID_2_"
   gradientUnits="userSpaceOnUse"
   x1="260.81879"
   y1="1124.0035"
   x2="334.6088"
   y2="1124.0035"
   gradientTransform="matrix(1,0,0,-1,0,1924)">
			<stop
   offset="1.821087e-07"
   style="stop-color:#000000"
   id="stop37" />
			<stop
   offset="0.4019"
   style="stop-color:#010002"
   id="stop39" />
			<stop
   offset="0.5467"
   style="stop-color:#070209"
   id="stop41" />
			<stop
   offset="0.6499"
   style="stop-color:#100414"
   id="stop43" />
			<stop
   offset="0.7334"
   style="stop-color:#1C0825"
   id="stop45" />
			<stop
   offset="0.8048"
   style="stop-color:#2D0D3B"
   id="stop47" />
			<stop
   offset="0.8681"
   style="stop-color:#421257"
   id="stop49" />
			<stop
   offset="0.9254"
   style="stop-color:#5A1977"
   id="stop51" />
			<stop
   offset="0.9763"
   style="stop-color:#76219B"
   id="stop53" />
			<stop
   offset="1"
   style="stop-color:#8525AF"
   id="stop55" />
		</linearGradient>
		<path
   class="st6"
   d="m 334.6,813.4 c 0,14.7 -7.7,22.1 -23,22.2 h -45.8 v -17.8 h 45.8 c 3,0 4.5,-1.5 4.5,-4.4 0,-3 -1.5,-4.5 -4.5,-4.5 h -27.8 c -15.3,-0.1 -23,-7.7 -23,-22.6 0,-14.6 7.7,-21.8 23,-21.8 h 45.8 v 17.8 h -45.8 c -2.9,0 -4.4,1.5 -4.5,4.4 0.1,3 1.6,4.5 4.5,4.5 h 27.8 c 15.3,-0.1 23,7.3 23,22.2 z"
   id="path58"
   style="fill:url(#SVGID_2_)" />
		
			<linearGradient
   id="SVGID_3_"
   gradientUnits="userSpaceOnUse"
   x1="344.6788"
   y1="1106.2137"
   x2="436.75879"
   y2="1106.2137"
   gradientTransform="matrix(1,0,0,-1,0,1924)">
			<stop
   offset="1.821087e-07"
   style="stop-color:#000000"
   id="stop60" />
			<stop
   offset="0.4019"
   style="stop-color:#010002"
   id="stop62" />
			<stop
   offset="0.5467"
   style="stop-color:#070209"
   id="stop64" />
			<stop
   offset="0.6499"
   style="stop-color:#100414"
   id="stop66" />
			<stop
   offset="0.7334"
   style="stop-color:#1C0825"
   id="stop68" />
			<stop
   offset="0.8048"
   style="stop-color:#2D0D3B"
   id="stop70" />
			<stop
   offset="0.8681"
   style="stop-color:#421257"
   id="stop72" />
			<stop
   offset="0.9254"
   style="stop-color:#5A1977"
   id="stop74" />
			<stop
   offset="0.9763"
   style="stop-color:#76219B"
   id="stop76" />
			<stop
   offset="1"
   style="stop-color:#8525AF"
   id="stop78" />
		</linearGradient>
		<path
   class="st7"
   d="m 354.7,853.4 h 8.4 c 3,0 6.9,-3.3 11.6,-10 l 5.4,-10.7 -35.4,-68.3 h 20.6 l 25.5,49.3 25.3,-49.3 h 20.6 l -36.9,71.2 -7.5,14.7 c -7.2,13.9 -16.8,20.9 -29,20.9 h -8.5 z"
   id="path81"
   style="fill:url(#SVGID_3_)" />
		
			<linearGradient
   id="SVGID_4_"
   gradientUnits="userSpaceOnUse"
   x1="441.78879"
   y1="1124.0087"
   x2="515.5788"
   y2="1124.0087"
   gradientTransform="matrix(1,0,0,-1,0,1924)">
			<stop
   offset="1.821087e-07"
   style="stop-color:#000000"
   id="stop83" />
			<stop
   offset="0.4019"
   style="stop-color:#010002"
   id="stop85" />
			<stop
   offset="0.5467"
   style="stop-color:#070209"
   id="stop87" />
			<stop
   offset="0.6499"
   style="stop-color:#100414"
   id="stop89" />
			<stop
   offset="0.7334"
   style="stop-color:#1C0825"
   id="stop91" />
			<stop
   offset="0.8048"
   style="stop-color:#2D0D3B"
   id="stop93" />
			<stop
   offset="0.8681"
   style="stop-color:#421257"
   id="stop95" />
			<stop
   offset="0.9254"
   style="stop-color:#5A1977"
   id="stop97" />
			<stop
   offset="0.9763"
   style="stop-color:#76219B"
   id="stop99" />
			<stop
   offset="1"
   style="stop-color:#8525AF"
   id="stop101" />
		</linearGradient>
		<path
   class="st8"
   d="m 515.6,835.6 h -46.1 c -18.5,0 -27.7,-8.9 -27.7,-26.7 v -17.8 c 0,-17.8 9.2,-26.7 27.7,-26.7 h 46.1 v 17.8 h -46.1 c -6.1,0 -9.2,3 -9.2,8.9 v 17.8 c 0,5.9 3.1,8.9 9.2,8.9 h 46.1 z"
   id="path104"
   style="fill:url(#SVGID_4_)" />
		
			<linearGradient
   id="SVGID_5_"
   gradientUnits="userSpaceOnUse"
   x1="520.10883"
   y1="1136.9387"
   x2="593.8988"
   y2="1136.9387"
   gradientTransform="matrix(1,0,0,-1,0,1924)">
			<stop
   offset="1.821087e-07"
   style="stop-color:#000000"
   id="stop106" />
			<stop
   offset="0.4019"
   style="stop-color:#010002"
   id="stop108" />
			<stop
   offset="0.5467"
   style="stop-color:#070209"
   id="stop110" />
			<stop
   offset="0.6499"
   style="stop-color:#100414"
   id="stop112" />
			<stop
   offset="0.7334"
   style="stop-color:#1C0825"
   id="stop114" />
			<stop
   offset="0.8048"
   style="stop-color:#2D0D3B"
   id="stop116" />
			<stop
   offset="0.8681"
   style="stop-color:#421257"
   id="stop118" />
			<stop
   offset="0.9254"
   style="stop-color:#5A1977"
   id="stop120" />
			<stop
   offset="0.9763"
   style="stop-color:#76219B"
   id="stop122" />
			<stop
   offset="1"
   style="stop-color:#8525AF"
   id="stop124" />
		</linearGradient>
		<path
   class="st9"
   d="m 520.1,835.6 v -97 h 18.5 v 25.9 h 27.7 c 18.5,0 27.7,8.9 27.7,26.7 v 44.5 h -18.5 v -44.5 c 0,-5.9 -3.1,-8.9 -9.2,-8.9 h -27.7 v 53.4 z"
   id="path127"
   style="fill:url(#SVGID_5_)" />
		
			<linearGradient
   id="SVGID_6_"
   gradientUnits="userSpaceOnUse"
   x1="603.9588"
   y1="1124.8185"
   x2="679.43878"
   y2="1124.8185"
   gradientTransform="matrix(1,0,0,-1,0,1924)">
			<stop
   offset="1.821087e-07"
   style="stop-color:#000000"
   id="stop129" />
			<stop
   offset="0.4019"
   style="stop-color:#010002"
   id="stop131" />
			<stop
   offset="0.5467"
   style="stop-color:#070209"
   id="stop133" />
			<stop
   offset="0.6499"
   style="stop-color:#100414"
   id="stop135" />
			<stop
   offset="0.7334"
   style="stop-color:#1C0825"
   id="stop137" />
			<stop
   offset="0.8048"
   style="stop-color:#2D0D3B"
   id="stop139" />
			<stop
   offset="0.8681"
   style="stop-color:#421257"
   id="stop141" />
			<stop
   offset="0.9254"
   style="stop-color:#5A1977"
   id="stop143" />
			<stop
   offset="0.9763"
   style="stop-color:#76219B"
   id="stop145" />
			<stop
   offset="1"
   style="stop-color:#8525AF"
   id="stop147" />
		</linearGradient>
		<path
   class="st10"
   d="m 622.4,807.3 v 1.6 c 0,5.9 3.1,8.9 9.2,8.9 H 676 v 17.8 h -44.4 c -18.5,0 -27.7,-8.9 -27.7,-26.7 v -1.6 -17.8 c 0,-17.8 9.4,-26.7 28.2,-26.7 h 19.1 c 18.8,0 28.2,8.9 28.2,26.7 v 17.8 z M 661,789.5 c 0,-5.9 -3.1,-8.9 -9.2,-8.9 h -20.1 c -6.2,0 -9.2,3 -9.2,8.9 z"
   id="path150"
   style="fill:url(#SVGID_6_)" />
		
			<linearGradient
   id="SVGID_7_"
   gradientUnits="userSpaceOnUse"
   x1="689.49878"
   y1="1136.9536"
   x2="763.28882"
   y2="1136.9536"
   gradientTransform="matrix(1,0,0,-1,0,1924)">
			<stop
   offset="1.821087e-07"
   style="stop-color:#000000"
   id="stop152" />
			<stop
   offset="0.4019"
   style="stop-color:#010002"
   id="stop154" />
			<stop
   offset="0.5467"
   style="stop-color:#070209"
   id="stop156" />
			<stop
   offset="0.6499"
   style="stop-color:#100414"
   id="stop158" />
			<stop
   offset="0.7334"
   style="stop-color:#1C0825"
   id="stop160" />
			<stop
   offset="0.8048"
   style="stop-color:#2D0D3B"
   id="stop162" />
			<stop
   offset="0.8681"
   style="stop-color:#421257"
   id="stop164" />
			<stop
   offset="0.9254"
   style="stop-color:#5A1977"
   id="stop166" />
			<stop
   offset="0.9763"
   style="stop-color:#76219B"
   id="stop168" />
			<stop
   offset="1"
   style="stop-color:#8525AF"
   id="stop170" />
		</linearGradient>
		<path
   class="st11"
   d="m 689.5,791.1 c 0,-17.8 9.2,-26.7 27.7,-26.7 h 27.7 v -25.9 h 18.5 v 97 h -46.1 c -18.5,0 -27.7,-8.9 -27.7,-26.7 v -17.7 z m 55.3,-8.9 h -27.7 c -6.2,0 -9.2,3 -9.2,8.9 v 17.8 c 0,5.9 3.1,8.9 9.2,8.9 h 27.7 z"
   id="path173"
   style="fill:url(#SVGID_7_)" />
		
			<linearGradient
   id="SVGID_8_"
   gradientUnits="userSpaceOnUse"
   x1="773.35883"
   y1="1124.8185"
   x2="848.83868"
   y2="1124.8185"
   gradientTransform="matrix(1,0,0,-1,0,1924)">
			<stop
   offset="1.821087e-07"
   style="stop-color:#000000"
   id="stop175" />
			<stop
   offset="0.4019"
   style="stop-color:#010002"
   id="stop177" />
			<stop
   offset="0.5467"
   style="stop-color:#070209"
   id="stop179" />
			<stop
   offset="0.6499"
   style="stop-color:#100414"
   id="stop181" />
			<stop
   offset="0.7334"
   style="stop-color:#1C0825"
   id="stop183" />
			<stop
   offset="0.8048"
   style="stop-color:#2D0D3B"
   id="stop185" />
			<stop
   offset="0.8681"
   style="stop-color:#421257"
   id="stop187" />
			<stop
   offset="0.9254"
   style="stop-color:#5A1977"
   id="stop189" />
			<stop
   offset="0.9763"
   style="stop-color:#76219B"
   id="stop191" />
			<stop
   offset="1"
   style="stop-color:#8525AF"
   id="stop193" />
		</linearGradient>
		<path
   class="st12"
   d="m 791.8,807.3 v 1.6 c 0,5.9 3.1,8.9 9.2,8.9 h 44.4 v 17.8 H 801 c -18.5,0 -27.7,-8.9 -27.7,-26.7 v -1.6 -17.8 c 0,-17.8 9.4,-26.7 28.2,-26.7 h 19.1 c 18.8,0 28.2,8.9 28.2,26.7 v 17.8 z m 38.6,-17.8 c 0,-5.9 -3.1,-8.9 -9.2,-8.9 H 801 c -6.2,0 -9.2,3 -9.2,8.9 z"
   id="path196"
   style="fill:url(#SVGID_8_)" />
		
			<linearGradient
   id="SVGID_9_"
   gradientUnits="userSpaceOnUse"
   x1="858.88879"
   y1="1136.9437"
   x2="877.33881"
   y2="1136.9437"
   gradientTransform="matrix(1,0,0,-1,0,1924)">
			<stop
   offset="1.821087e-07"
   style="stop-color:#000000"
   id="stop198" />
			<stop
   offset="0.4019"
   style="stop-color:#010002"
   id="stop200" />
			<stop
   offset="0.5467"
   style="stop-color:#070209"
   id="stop202" />
			<stop
   offset="0.6499"
   style="stop-color:#100414"
   id="stop204" />
			<stop
   offset="0.7334"
   style="stop-color:#1C0825"
   id="stop206" />
			<stop
   offset="0.8048"
   style="stop-color:#2D0D3B"
   id="stop208" />
			<stop
   offset="0.8681"
   style="stop-color:#421257"
   id="stop210" />
			<stop
   offset="0.9254"
   style="stop-color:#5A1977"
   id="stop212" />
			<stop
   offset="0.9763"
   style="stop-color:#76219B"
   id="stop214" />
			<stop
   offset="1"
   style="stop-color:#8525AF"
   id="stop216" />
		</linearGradient>
		<path
   class="st13"
   d="m 858.9,835.6 v -97 h 18.5 v 97 z"
   id="path219"
   style="fill:url(#SVGID_9_)" />
		
			<linearGradient
   id="SVGID_10_"
   gradientUnits="userSpaceOnUse"
   x1="887.3988"
   y1="1136.9437"
   x2="905.84882"
   y2="1136.9437"
   gradientTransform="matrix(1,0,0,-1,0,1924)">
			<stop
   offset="1.821087e-07"
   style="stop-color:#000000"
   id="stop221" />
			<stop
   offset="0.4019"
   style="stop-color:#010002"
   id="stop223" />
			<stop
   offset="0.5467"
   style="stop-color:#070209"
   id="stop225" />
			<stop
   offset="0.6499"
   style="stop-color:#100414"
   id="stop227" />
			<stop
   offset="0.7334"
   style="stop-color:#1C0825"
   id="stop229" />
			<stop
   offset="0.8048"
   style="stop-color:#2D0D3B"
   id="stop231" />
			<stop
   offset="0.8681"
   style="stop-color:#421257"
   id="stop233" />
			<stop
   offset="0.9254"
   style="stop-color:#5A1977"
   id="stop235" />
			<stop
   offset="0.9763"
   style="stop-color:#76219B"
   id="stop237" />
			<stop
   offset="1"
   style="stop-color:#8525AF"
   id="stop239" />
		</linearGradient>
		<path
   class="st14"
   d="m 905.8,756.3 h -18.5 v -17.8 h 18.5 z m 0,79.3 h -18.5 v -71.2 h 18.5 z"
   id="path242"
   style="fill:url(#SVGID_10_)" />
		
			<linearGradient
   id="SVGID_11_"
   gradientUnits="userSpaceOnUse"
   x1="915.91882"
   y1="1124.0087"
   x2="989.7088"
   y2="1124.0087"
   gradientTransform="matrix(1,0,0,-1,0,1924)">
			<stop
   offset="1.821087e-07"
   style="stop-color:#000000"
   id="stop244" />
			<stop
   offset="0.4019"
   style="stop-color:#010002"
   id="stop246" />
			<stop
   offset="0.5467"
   style="stop-color:#070209"
   id="stop248" />
			<stop
   offset="0.6499"
   style="stop-color:#100414"
   id="stop250" />
			<stop
   offset="0.7334"
   style="stop-color:#1C0825"
   id="stop252" />
			<stop
   offset="0.8048"
   style="stop-color:#2D0D3B"
   id="stop254" />
			<stop
   offset="0.8681"
   style="stop-color:#421257"
   id="stop256" />
			<stop
   offset="0.9254"
   style="stop-color:#5A1977"
   id="stop258" />
			<stop
   offset="0.9763"
   style="stop-color:#76219B"
   id="stop260" />
			<stop
   offset="1"
   style="stop-color:#8525AF"
   id="stop262" />
		</linearGradient>
		<path
   class="st15"
   d="m 989.7,835.6 h -46.1 c -18.5,0 -27.7,-8.9 -27.7,-26.7 v -17.8 c 0,-17.8 9.2,-26.7 27.7,-26.7 h 46.1 v 17.8 h -46.1 c -6.2,0 -9.2,3 -9.2,8.9 v 17.8 c 0,5.9 3.1,8.9 9.2,8.9 h 46.1 z"
   id="path265"
   style="fill:url(#SVGID_11_)" />
		
			<linearGradient
   id="SVGID_12_"
   gradientUnits="userSpaceOnUse"
   x1="150.1188"
   y1="942.86359"
   x2="250.7588"
   y2="942.86359"
   gradientTransform="matrix(1,0,0,-1,0,1924)">
			<stop
   offset="1.821087e-07"
   style="stop-color:#000000"
   id="stop267" />
			<stop
   offset="0.4019"
   style="stop-color:#010002"
   id="stop269" />
			<stop
   offset="0.5467"
   style="stop-color:#070209"
   id="stop271" />
			<stop
   offset="0.6499"
   style="stop-color:#100414"
   id="stop273" />
			<stop
   offset="0.7334"
   style="stop-color:#1C0825"
   id="stop275" />
			<stop
   offset="0.8048"
   style="stop-color:#2D0D3B"
   id="stop277" />
			<stop
   offset="0.8681"
   style="stop-color:#421257"
   id="stop279" />
			<stop
   offset="0.9254"
   style="stop-color:#5A1977"
   id="stop281" />
			<stop
   offset="0.9763"
   style="stop-color:#76219B"
   id="stop283" />
			<stop
   offset="1"
   style="stop-color:#8525AF"
   id="stop285" />
		</linearGradient>
		<path
   class="st16"
   d="m 250.8,1029.7 h -20.1 v -19.4 h -60.4 v 19.4 h -20.1 v -67.9 c 0,-19.4 10.1,-29.1 30.2,-29.1 h 40.3 c 20.1,0 30.2,9.7 30.2,29.1 z m -20.2,-38.9 v -29.1 c 0,-6.5 -3.4,-9.7 -10.1,-9.7 h -40.3 c -6.7,0 -10.1,3.2 -10.1,9.7 v 29.1 z"
   id="path288"
   style="fill:url(#SVGID_12_)" />
		
			<linearGradient
   id="SVGID_13_"
   gradientUnits="userSpaceOnUse"
   x1="260.81879"
   y1="942.86371"
   x2="334.6088"
   y2="942.86371"
   gradientTransform="matrix(1,0,0,-1,0,1924)">
			<stop
   offset="1.821087e-07"
   style="stop-color:#000000"
   id="stop290" />
			<stop
   offset="0.4019"
   style="stop-color:#010002"
   id="stop292" />
			<stop
   offset="0.5467"
   style="stop-color:#070209"
   id="stop294" />
			<stop
   offset="0.6499"
   style="stop-color:#100414"
   id="stop296" />
			<stop
   offset="0.7334"
   style="stop-color:#1C0825"
   id="stop298" />
			<stop
   offset="0.8048"
   style="stop-color:#2D0D3B"
   id="stop300" />
			<stop
   offset="0.8681"
   style="stop-color:#421257"
   id="stop302" />
			<stop
   offset="0.9254"
   style="stop-color:#5A1977"
   id="stop304" />
			<stop
   offset="0.9763"
   style="stop-color:#76219B"
   id="stop306" />
			<stop
   offset="1"
   style="stop-color:#8525AF"
   id="stop308" />
		</linearGradient>
		<path
   class="st17"
   d="m 334.6,1003 c 0,17.8 -9.2,26.7 -27.7,26.7 h -46.1 v -97 h 18.5 v 25.9 H 307 c 18.5,0 27.7,8.9 27.7,26.7 v 17.7 z m -55.3,8.9 H 307 c 6.1,0 9.2,-3 9.2,-8.9 v -17.8 c 0,-5.9 -3.1,-8.9 -9.2,-8.9 h -27.7 z"
   id="path311"
   style="fill:url(#SVGID_13_)" />
		
			<linearGradient
   id="SVGID_14_"
   gradientUnits="userSpaceOnUse"
   x1="344.66879"
   y1="929.92358"
   x2="418.46881"
   y2="929.92358"
   gradientTransform="matrix(1,0,0,-1,0,1924)">
			<stop
   offset="1.821087e-07"
   style="stop-color:#000000"
   id="stop313" />
			<stop
   offset="0.4019"
   style="stop-color:#010002"
   id="stop315" />
			<stop
   offset="0.5467"
   style="stop-color:#070209"
   id="stop317" />
			<stop
   offset="0.6499"
   style="stop-color:#100414"
   id="stop319" />
			<stop
   offset="0.7334"
   style="stop-color:#1C0825"
   id="stop321" />
			<stop
   offset="0.8048"
   style="stop-color:#2D0D3B"
   id="stop323" />
			<stop
   offset="0.8681"
   style="stop-color:#421257"
   id="stop325" />
			<stop
   offset="0.9254"
   style="stop-color:#5A1977"
   id="stop327" />
			<stop
   offset="0.9763"
   style="stop-color:#76219B"
   id="stop329" />
			<stop
   offset="1"
   style="stop-color:#8525AF"
   id="stop331" />
		</linearGradient>
		<path
   class="st18"
   d="m 418.5,1007.5 c 0,14.7 -7.7,22 -23,22.2 h -45.8 v -17.8 h 45.8 c 3,0 4.5,-1.5 4.5,-4.4 0,-3 -1.5,-4.5 -4.5,-4.5 h -27.8 c -15.3,-0.1 -23,-7.7 -23,-22.6 0,-14.6 7.7,-21.8 23,-21.8 h 45.8 v 17.8 h -45.8 c -2.9,0 -4.4,1.5 -4.5,4.4 0.1,3 1.6,4.5 4.5,4.5 h 27.8 c 15.3,-0.1 23,7.3 23,22.2 z"
   id="path334"
   style="fill:url(#SVGID_14_)" />
		
			<linearGradient
   id="SVGID_15_"
   gradientUnits="userSpaceOnUse"
   x1="428.52881"
   y1="942.86359"
   x2="467.09879"
   y2="942.86359"
   gradientTransform="matrix(1,0,0,-1,0,1924)">
			<stop
   offset="1.821087e-07"
   style="stop-color:#000000"
   id="stop336" />
			<stop
   offset="0.4019"
   style="stop-color:#010002"
   id="stop338" />
			<stop
   offset="0.5467"
   style="stop-color:#070209"
   id="stop340" />
			<stop
   offset="0.6499"
   style="stop-color:#100414"
   id="stop342" />
			<stop
   offset="0.7334"
   style="stop-color:#1C0825"
   id="stop344" />
			<stop
   offset="0.8048"
   style="stop-color:#2D0D3B"
   id="stop346" />
			<stop
   offset="0.8681"
   style="stop-color:#421257"
   id="stop348" />
			<stop
   offset="0.9254"
   style="stop-color:#5A1977"
   id="stop350" />
			<stop
   offset="0.9763"
   style="stop-color:#76219B"
   id="stop352" />
			<stop
   offset="1"
   style="stop-color:#8525AF"
   id="stop354" />
		</linearGradient>
		<path
   class="st19"
   d="m 428.5,958.5 h 10.1 V 932.6 H 457 v 25.9 h 10.1 v 17.8 h -10 v 53.4 h -18.5 v -53.4 h -10.1 z"
   id="path357"
   style="fill:url(#SVGID_15_)" />
		
			<linearGradient
   id="SVGID_16_"
   gradientUnits="userSpaceOnUse"
   x1="477.16879"
   y1="929.92358"
   x2="550.9588"
   y2="929.92358"
   gradientTransform="matrix(1,0,0,-1,0,1924)">
			<stop
   offset="1.821087e-07"
   style="stop-color:#000000"
   id="stop359" />
			<stop
   offset="0.4019"
   style="stop-color:#010002"
   id="stop361" />
			<stop
   offset="0.5467"
   style="stop-color:#070209"
   id="stop363" />
			<stop
   offset="0.6499"
   style="stop-color:#100414"
   id="stop365" />
			<stop
   offset="0.7334"
   style="stop-color:#1C0825"
   id="stop367" />
			<stop
   offset="0.8048"
   style="stop-color:#2D0D3B"
   id="stop369" />
			<stop
   offset="0.8681"
   style="stop-color:#421257"
   id="stop371" />
			<stop
   offset="0.9254"
   style="stop-color:#5A1977"
   id="stop373" />
			<stop
   offset="0.9763"
   style="stop-color:#76219B"
   id="stop375" />
			<stop
   offset="1"
   style="stop-color:#8525AF"
   id="stop377" />
		</linearGradient>
		<path
   class="st20"
   d="m 477.2,1029.7 v -71.2 h 46.1 c 18.5,0 27.7,8.9 27.7,26.7 h -18.5 c 0,-5.9 -3.1,-8.9 -9.2,-8.9 h -27.7 v 53.4 z"
   id="path380"
   style="fill:url(#SVGID_16_)" />
		
			<linearGradient
   id="SVGID_17_"
   gradientUnits="userSpaceOnUse"
   x1="552.12878"
   y1="929.90863"
   x2="625.92877"
   y2="929.90863"
   gradientTransform="matrix(1,0,0,-1,0,1924)">
			<stop
   offset="1.821087e-07"
   style="stop-color:#000000"
   id="stop382" />
			<stop
   offset="0.4019"
   style="stop-color:#010002"
   id="stop384" />
			<stop
   offset="0.5467"
   style="stop-color:#070209"
   id="stop386" />
			<stop
   offset="0.6499"
   style="stop-color:#100414"
   id="stop388" />
			<stop
   offset="0.7334"
   style="stop-color:#1C0825"
   id="stop390" />
			<stop
   offset="0.8048"
   style="stop-color:#2D0D3B"
   id="stop392" />
			<stop
   offset="0.8681"
   style="stop-color:#421257"
   id="stop394" />
			<stop
   offset="0.9254"
   style="stop-color:#5A1977"
   id="stop396" />
			<stop
   offset="0.9763"
   style="stop-color:#76219B"
   id="stop398" />
			<stop
   offset="1"
   style="stop-color:#8525AF"
   id="stop400" />
		</linearGradient>
		<path
   class="st21"
   d="m 575.3,1029.7 c -15.4,0 -23.2,-7.5 -23.2,-22.6 0,-14.6 7.7,-21.8 23.2,-21.8 h 32.2 V 985 c 0,-5.8 -3.1,-8.7 -9.2,-8.7 h -42.8 v -17.8 h 42.8 c 18.5,0 27.7,8.9 27.7,26.7 v 44.5 z m 0,-17.8 h 32.2 v -8.9 h -32.2 c -3.1,0 -4.7,1.5 -4.7,4.4 0,3 1.5,4.5 4.7,4.5 z"
   id="path403"
   style="fill:url(#SVGID_17_)" />
		
			<linearGradient
   id="SVGID_18_"
   gradientUnits="userSpaceOnUse"
   x1="635.99878"
   y1="929.92853"
   x2="709.78882"
   y2="929.92853"
   gradientTransform="matrix(1,0,0,-1,0,1924)">
			<stop
   offset="1.821087e-07"
   style="stop-color:#000000"
   id="stop405" />
			<stop
   offset="0.4019"
   style="stop-color:#010002"
   id="stop407" />
			<stop
   offset="0.5467"
   style="stop-color:#070209"
   id="stop409" />
			<stop
   offset="0.6499"
   style="stop-color:#100414"
   id="stop411" />
			<stop
   offset="0.7334"
   style="stop-color:#1C0825"
   id="stop413" />
			<stop
   offset="0.8048"
   style="stop-color:#2D0D3B"
   id="stop415" />
			<stop
   offset="0.8681"
   style="stop-color:#421257"
   id="stop417" />
			<stop
   offset="0.9254"
   style="stop-color:#5A1977"
   id="stop419" />
			<stop
   offset="0.9763"
   style="stop-color:#76219B"
   id="stop421" />
			<stop
   offset="1"
   style="stop-color:#8525AF"
   id="stop423" />
		</linearGradient>
		<path
   class="st22"
   d="m 709.8,1029.7 h -46.1 c -18.5,0 -27.7,-8.9 -27.7,-26.7 v -17.8 c 0,-17.8 9.2,-26.7 27.7,-26.7 h 46.1 v 17.8 h -46.1 c -6.2,0 -9.2,3 -9.2,8.9 v 17.8 c 0,5.9 3.1,8.9 9.2,8.9 h 46.1 z"
   id="path426"
   style="fill:url(#SVGID_18_)" />
		
			<linearGradient
   id="SVGID_19_"
   gradientUnits="userSpaceOnUse"
   x1="719.85883"
   y1="942.86359"
   x2="758.42877"
   y2="942.86359"
   gradientTransform="matrix(1,0,0,-1,0,1924)">
			<stop
   offset="1.821087e-07"
   style="stop-color:#000000"
   id="stop428" />
			<stop
   offset="0.4019"
   style="stop-color:#010002"
   id="stop430" />
			<stop
   offset="0.5467"
   style="stop-color:#070209"
   id="stop432" />
			<stop
   offset="0.6499"
   style="stop-color:#100414"
   id="stop434" />
			<stop
   offset="0.7334"
   style="stop-color:#1C0825"
   id="stop436" />
			<stop
   offset="0.8048"
   style="stop-color:#2D0D3B"
   id="stop438" />
			<stop
   offset="0.8681"
   style="stop-color:#421257"
   id="stop440" />
			<stop
   offset="0.9254"
   style="stop-color:#5A1977"
   id="stop442" />
			<stop
   offset="0.9763"
   style="stop-color:#76219B"
   id="stop444" />
			<stop
   offset="1"
   style="stop-color:#8525AF"
   id="stop446" />
		</linearGradient>
		<path
   class="st23"
   d="M 719.9,958.5 H 730 v -25.9 h 18.5 v 25.9 h 10.1 v 17.8 h -10.1 v 53.4 H 730 v -53.4 h -10.1 z"
   id="path449"
   style="fill:url(#SVGID_19_)" />
		
			<linearGradient
   id="SVGID_20_"
   gradientUnits="userSpaceOnUse"
   x1="150.1288"
   y1="748.78363"
   x2="291.00879"
   y2="748.78363"
   gradientTransform="matrix(1,0,0,-1,0,1924)">
			<stop
   offset="1.821087e-07"
   style="stop-color:#000000"
   id="stop451" />
			<stop
   offset="0.4019"
   style="stop-color:#010002"
   id="stop453" />
			<stop
   offset="0.5467"
   style="stop-color:#070209"
   id="stop455" />
			<stop
   offset="0.6499"
   style="stop-color:#100414"
   id="stop457" />
			<stop
   offset="0.7334"
   style="stop-color:#1C0825"
   id="stop459" />
			<stop
   offset="0.8048"
   style="stop-color:#2D0D3B"
   id="stop461" />
			<stop
   offset="0.8681"
   style="stop-color:#421257"
   id="stop463" />
			<stop
   offset="0.9254"
   style="stop-color:#5A1977"
   id="stop465" />
			<stop
   offset="0.9763"
   style="stop-color:#76219B"
   id="stop467" />
			<stop
   offset="1"
   style="stop-color:#8525AF"
   id="stop469" />
		</linearGradient>
		<path
   class="st24"
   d="m 291,1126.7 -29.7,97 h -21.1 l -19.6,-63.1 -19.6,63.1 h -21.1 l -29.7,-97 h 21.1 l 19.1,63.1 19.6,-63.1 h 21.1 l 19.6,63.1 19.1,-63.1 z"
   id="path472"
   style="fill:url(#SVGID_20_)" />
		
			<linearGradient
   id="SVGID_21_"
   gradientUnits="userSpaceOnUse"
   x1="286.4888"
   y1="735.82867"
   x2="360.27881"
   y2="735.82867"
   gradientTransform="matrix(1,0,0,-1,0,1924)">
			<stop
   offset="1.821087e-07"
   style="stop-color:#000000"
   id="stop474" />
			<stop
   offset="0.4019"
   style="stop-color:#010002"
   id="stop476" />
			<stop
   offset="0.5467"
   style="stop-color:#070209"
   id="stop478" />
			<stop
   offset="0.6499"
   style="stop-color:#100414"
   id="stop480" />
			<stop
   offset="0.7334"
   style="stop-color:#1C0825"
   id="stop482" />
			<stop
   offset="0.8048"
   style="stop-color:#2D0D3B"
   id="stop484" />
			<stop
   offset="0.8681"
   style="stop-color:#421257"
   id="stop486" />
			<stop
   offset="0.9254"
   style="stop-color:#5A1977"
   id="stop488" />
			<stop
   offset="0.9763"
   style="stop-color:#76219B"
   id="stop490" />
			<stop
   offset="1"
   style="stop-color:#8525AF"
   id="stop492" />
		</linearGradient>
		<path
   class="st25"
   d="m 309.6,1223.7 c -15.4,0 -23.1,-7.6 -23.1,-22.6 0,-14.6 7.7,-21.8 23.1,-21.8 h 32.2 v -0.2 c 0,-5.8 -3.1,-8.7 -9.2,-8.7 h -42.8 v -17.8 h 42.8 c 18.5,0 27.7,8.9 27.7,26.7 v 44.5 z m 0,-17.8 h 32.2 v -8.9 h -32.2 c -3.1,0 -4.7,1.5 -4.7,4.4 0,3 1.6,4.5 4.7,4.5 z"
   id="path495"
   style="fill:url(#SVGID_21_)" />
		
			<linearGradient
   id="SVGID_22_"
   gradientUnits="userSpaceOnUse"
   x1="370.33881"
   y1="748.78363"
   x2="388.78879"
   y2="748.78363"
   gradientTransform="matrix(1,0,0,-1,0,1924)">
			<stop
   offset="1.821087e-07"
   style="stop-color:#000000"
   id="stop497" />
			<stop
   offset="0.4019"
   style="stop-color:#010002"
   id="stop499" />
			<stop
   offset="0.5467"
   style="stop-color:#070209"
   id="stop501" />
			<stop
   offset="0.6499"
   style="stop-color:#100414"
   id="stop503" />
			<stop
   offset="0.7334"
   style="stop-color:#1C0825"
   id="stop505" />
			<stop
   offset="0.8048"
   style="stop-color:#2D0D3B"
   id="stop507" />
			<stop
   offset="0.8681"
   style="stop-color:#421257"
   id="stop509" />
			<stop
   offset="0.9254"
   style="stop-color:#5A1977"
   id="stop511" />
			<stop
   offset="0.9763"
   style="stop-color:#76219B"
   id="stop513" />
			<stop
   offset="1"
   style="stop-color:#8525AF"
   id="stop515" />
		</linearGradient>
		<path
   class="st26"
   d="m 370.3,1223.7 v -97 h 18.5 v 97 z"
   id="path518"
   style="fill:url(#SVGID_22_)" />
		
			<linearGradient
   id="SVGID_23_"
   gradientUnits="userSpaceOnUse"
   x1="398.84879"
   y1="748.78363"
   x2="417.2988"
   y2="748.78363"
   gradientTransform="matrix(1,0,0,-1,0,1924)">
			<stop
   offset="1.821087e-07"
   style="stop-color:#000000"
   id="stop520" />
			<stop
   offset="0.4019"
   style="stop-color:#010002"
   id="stop522" />
			<stop
   offset="0.5467"
   style="stop-color:#070209"
   id="stop524" />
			<stop
   offset="0.6499"
   style="stop-color:#100414"
   id="stop526" />
			<stop
   offset="0.7334"
   style="stop-color:#1C0825"
   id="stop528" />
			<stop
   offset="0.8048"
   style="stop-color:#2D0D3B"
   id="stop530" />
			<stop
   offset="0.8681"
   style="stop-color:#421257"
   id="stop532" />
			<stop
   offset="0.9254"
   style="stop-color:#5A1977"
   id="stop534" />
			<stop
   offset="0.9763"
   style="stop-color:#76219B"
   id="stop536" />
			<stop
   offset="1"
   style="stop-color:#8525AF"
   id="stop538" />
		</linearGradient>
		<path
   class="st27"
   d="m 398.8,1223.7 v -97 h 18.5 v 97 z"
   id="path541"
   style="fill:url(#SVGID_23_)" />
		
			<linearGradient
   id="SVGID_24_"
   gradientUnits="userSpaceOnUse"
   x1="427.3588"
   y1="718.05359"
   x2="501.15881"
   y2="718.05359"
   gradientTransform="matrix(1,0,0,-1,0,1924)">
			<stop
   offset="1.821087e-07"
   style="stop-color:#000000"
   id="stop543" />
			<stop
   offset="0.4019"
   style="stop-color:#010002"
   id="stop545" />
			<stop
   offset="0.5467"
   style="stop-color:#070209"
   id="stop547" />
			<stop
   offset="0.6499"
   style="stop-color:#100414"
   id="stop549" />
			<stop
   offset="0.7334"
   style="stop-color:#1C0825"
   id="stop551" />
			<stop
   offset="0.8048"
   style="stop-color:#2D0D3B"
   id="stop553" />
			<stop
   offset="0.8681"
   style="stop-color:#421257"
   id="stop555" />
			<stop
   offset="0.9254"
   style="stop-color:#5A1977"
   id="stop557" />
			<stop
   offset="0.9763"
   style="stop-color:#76219B"
   id="stop559" />
			<stop
   offset="1"
   style="stop-color:#8525AF"
   id="stop561" />
		</linearGradient>
		<path
   class="st28"
   d="m 501.2,1197 c 0,17.8 -9.3,26.7 -28,26.7 h -27.3 v 35.6 h -18.5 v -106.7 h 46.1 c 18.5,0 27.7,8.9 27.7,26.7 z m -55.4,8.9 h 27.7 c 6.1,0 9.2,-3 9.2,-8.9 v -17.8 c 0,-5.9 -3.1,-8.9 -9.2,-8.9 h -27.7 z"
   id="path564"
   style="fill:url(#SVGID_24_)" />
		
			<linearGradient
   id="SVGID_25_"
   gradientUnits="userSpaceOnUse"
   x1="511.21881"
   y1="735.82867"
   x2="585.00891"
   y2="735.82867"
   gradientTransform="matrix(1,0,0,-1,0,1924)">
			<stop
   offset="1.821087e-07"
   style="stop-color:#000000"
   id="stop566" />
			<stop
   offset="0.4019"
   style="stop-color:#010002"
   id="stop568" />
			<stop
   offset="0.5467"
   style="stop-color:#070209"
   id="stop570" />
			<stop
   offset="0.6499"
   style="stop-color:#100414"
   id="stop572" />
			<stop
   offset="0.7334"
   style="stop-color:#1C0825"
   id="stop574" />
			<stop
   offset="0.8048"
   style="stop-color:#2D0D3B"
   id="stop576" />
			<stop
   offset="0.8681"
   style="stop-color:#421257"
   id="stop578" />
			<stop
   offset="0.9254"
   style="stop-color:#5A1977"
   id="stop580" />
			<stop
   offset="0.9763"
   style="stop-color:#76219B"
   id="stop582" />
			<stop
   offset="1"
   style="stop-color:#8525AF"
   id="stop584" />
		</linearGradient>
		<path
   class="st29"
   d="m 534.4,1223.7 c -15.4,0 -23.1,-7.6 -23.1,-22.6 0,-14.6 7.7,-21.8 23.1,-21.8 h 32.2 v -0.2 c 0,-5.8 -3.1,-8.7 -9.2,-8.7 h -42.8 v -17.8 h 42.8 c 18.5,0 27.7,8.9 27.7,26.7 v 44.5 z m 0,-17.8 h 32.2 v -8.9 h -32.2 c -3.1,0 -4.7,1.5 -4.7,4.4 0,3 1.5,4.5 4.7,4.5 z"
   id="path587"
   style="fill:url(#SVGID_25_)" />
		
			<linearGradient
   id="SVGID_26_"
   gradientUnits="userSpaceOnUse"
   x1="589.53882"
   y1="718.05359"
   x2="663.33881"
   y2="718.05359"
   gradientTransform="matrix(1,0,0,-1,0,1924)">
			<stop
   offset="1.821087e-07"
   style="stop-color:#000000"
   id="stop589" />
			<stop
   offset="0.4019"
   style="stop-color:#010002"
   id="stop591" />
			<stop
   offset="0.5467"
   style="stop-color:#070209"
   id="stop593" />
			<stop
   offset="0.6499"
   style="stop-color:#100414"
   id="stop595" />
			<stop
   offset="0.7334"
   style="stop-color:#1C0825"
   id="stop597" />
			<stop
   offset="0.8048"
   style="stop-color:#2D0D3B"
   id="stop599" />
			<stop
   offset="0.8681"
   style="stop-color:#421257"
   id="stop601" />
			<stop
   offset="0.9254"
   style="stop-color:#5A1977"
   id="stop603" />
			<stop
   offset="0.9763"
   style="stop-color:#76219B"
   id="stop605" />
			<stop
   offset="1"
   style="stop-color:#8525AF"
   id="stop607" />
		</linearGradient>
		<path
   class="st30"
   d="m 663.3,1197 c 0,17.8 -9.3,26.7 -28,26.7 H 608 v 35.6 h -18.5 v -106.7 h 46.1 c 18.5,0 27.7,8.9 27.7,26.7 z m -55.3,8.9 h 27.7 c 6.2,0 9.2,-3 9.2,-8.9 v -17.8 c 0,-5.9 -3.1,-8.9 -9.2,-8.9 H 608 Z"
   id="path610"
   style="fill:url(#SVGID_26_)" />
		
			<linearGradient
   id="SVGID_27_"
   gradientUnits="userSpaceOnUse"
   x1="673.3988"
   y1="736.64862"
   x2="748.87878"
   y2="736.64862"
   gradientTransform="matrix(1,0,0,-1,0,1924)">
			<stop
   offset="1.821087e-07"
   style="stop-color:#000000"
   id="stop612" />
			<stop
   offset="0.4019"
   style="stop-color:#010002"
   id="stop614" />
			<stop
   offset="0.5467"
   style="stop-color:#070209"
   id="stop616" />
			<stop
   offset="0.6499"
   style="stop-color:#100414"
   id="stop618" />
			<stop
   offset="0.7334"
   style="stop-color:#1C0825"
   id="stop620" />
			<stop
   offset="0.8048"
   style="stop-color:#2D0D3B"
   id="stop622" />
			<stop
   offset="0.8681"
   style="stop-color:#421257"
   id="stop624" />
			<stop
   offset="0.9254"
   style="stop-color:#5A1977"
   id="stop626" />
			<stop
   offset="0.9763"
   style="stop-color:#76219B"
   id="stop628" />
			<stop
   offset="1"
   style="stop-color:#8525AF"
   id="stop630" />
		</linearGradient>
		<path
   class="st31"
   d="m 691.8,1195.4 v 1.6 c 0,5.9 3.1,8.9 9.2,8.9 h 44.4 v 17.8 H 701 c -18.5,0 -27.7,-8.9 -27.7,-26.7 v -1.6 -17.8 c 0,-17.8 9.4,-26.7 28.2,-26.7 h 19.1 c 18.8,0 28.2,8.9 28.2,26.7 v 17.8 z m 38.6,-17.8 c 0,-5.9 -3.1,-8.9 -9.2,-8.9 h -20.1 c -6.2,0 -9.2,3 -9.2,8.9 z"
   id="path633"
   style="fill:url(#SVGID_27_)" />
		
			<linearGradient
   id="SVGID_28_"
   gradientUnits="userSpaceOnUse"
   x1="758.93878"
   y1="735.84363"
   x2="832.72882"
   y2="735.84363"
   gradientTransform="matrix(1,0,0,-1,0,1924)">
			<stop
   offset="1.821087e-07"
   style="stop-color:#000000"
   id="stop635" />
			<stop
   offset="0.4019"
   style="stop-color:#010002"
   id="stop637" />
			<stop
   offset="0.5467"
   style="stop-color:#070209"
   id="stop639" />
			<stop
   offset="0.6499"
   style="stop-color:#100414"
   id="stop641" />
			<stop
   offset="0.7334"
   style="stop-color:#1C0825"
   id="stop643" />
			<stop
   offset="0.8048"
   style="stop-color:#2D0D3B"
   id="stop645" />
			<stop
   offset="0.8681"
   style="stop-color:#421257"
   id="stop647" />
			<stop
   offset="0.9254"
   style="stop-color:#5A1977"
   id="stop649" />
			<stop
   offset="0.9763"
   style="stop-color:#76219B"
   id="stop651" />
			<stop
   offset="1"
   style="stop-color:#8525AF"
   id="stop653" />
		</linearGradient>
		<path
   class="st32"
   d="m 758.9,1223.7 v -71.2 H 805 c 18.5,0 27.7,8.9 27.7,26.7 h -18.5 c 0,-5.9 -3.1,-8.9 -9.2,-8.9 h -27.7 v 53.4 z"
   id="path656"
   style="fill:url(#SVGID_28_)" />
	</g>
<g
   class="st0"
   id="_x0D_psychedelic_x03__1_">
	<text
   id="text661"
   class="st1 st2 st3"
   transform="matrix(0.7473 -0.7355 0.7015 0.7127 298.3649 745.5627)">psychedelic </text>
</g>
<g
   class="st0"
   id="abstract">
	<text
   id="text664"
   class="st33 st2 st34"
   transform="matrix(1.037 0 0 1 86.4077 987.7051)">abstract</text>
</g>
<g
   class="st0"
   id="_psychedelic_x03_">
	<text
   id="text667"
   class="st33 st2 st3"
   transform="matrix(1.0485 -1.370000e-02 1.300000e-02 0.9999 90.3185 845.6364)">psychedelic </text>
</g>
<g
   class="st0"
   id="wallpaper">
	<text
   id="text670"
   class="st33 st2 st35"
   transform="matrix(0.9321 -8.565771e-03 9.189263e-03 1 87.6022 1140.6827)">wallpaper</text>
</g>
</svg>
